# xmcd CD database file
#
# Track frame offsets:
#	150
#	18947
#	36495
#	53420
#	73070
#	90715
#	110017
#	128300
#	144837
#	162810
#
# Disc length: 2402 seconds
#
# Revision: 0
# Processed by: cddbd v1.5PL3 Copyright (c) Steve Scherf et al.
# Submitted via: CDex 1.51
#
DISCID=7909600a
DTITLE=寿隊 - いざっ！鎌倉
DYEAR=1999
DGENRE=Pop
TTITLE0=いざっ！鎌倉
TTITLE1=ナニっ？それっ？
TTITLE2=怠惰
TTITLE3=押しつけの躾のつけ
TTITLE4=波瀾万丈
TTITLE5=存在の詩
TTITLE6=寿梁山泊
TTITLE7=嘘つき音頭
TTITLE8=しかない
TTITLE9=蟻は死して巣を残す
EXTD=YEAR: 1999
EXTT0=
EXTT1=
EXTT2=
EXTT3=
EXTT4=
EXTT5=
EXTT6=
EXTT7=
EXTT8=
EXTT9=
PLAYORDER=
